<mxfile host="app.diagrams.net" modified="2023-03-31T00:33:04.577Z" agent="Mozilla/5.0 (Windows NT 10.0; Win64; x64) AppleWebKit/537.36 (KHTML, like Gecko) Chrome/111.0.0.0 Safari/537.36" etag="-z2fLTJULVwtCno8ry_Q" version="21.1.2" type="github">
  <diagram name="Page-1" id="tYGMnQf8bMN2CDeZ92Wz">
    <mxGraphModel dx="811" dy="361" grid="1" gridSize="10" guides="1" tooltips="1" connect="1" arrows="1" fold="1" page="1" pageScale="1" pageWidth="850" pageHeight="1100" math="0" shadow="0">
      <root>
        <mxCell id="0" />
        <mxCell id="1" parent="0" />
        <mxCell id="MeGLf6wLGjFwOOJ8S2s7-1" value="Actor" style="shape=umlActor;verticalLabelPosition=bottom;verticalAlign=top;html=1;outlineConnect=0;" parent="1" vertex="1">
          <mxGeometry x="120" y="110" width="30" height="60" as="geometry" />
        </mxCell>
        <mxCell id="MeGLf6wLGjFwOOJ8S2s7-2" value="" style="whiteSpace=wrap;html=1;aspect=fixed;" parent="1" vertex="1">
          <mxGeometry x="160" y="20" width="450" height="450" as="geometry" />
        </mxCell>
        <mxCell id="MeGLf6wLGjFwOOJ8S2s7-4" value="Logout" style="ellipse;whiteSpace=wrap;html=1;align=center;" parent="1" vertex="1">
          <mxGeometry x="375" y="150" width="100" height="40" as="geometry" />
        </mxCell>
        <mxCell id="MeGLf6wLGjFwOOJ8S2s7-5" value="Login" style="ellipse;whiteSpace=wrap;html=1;align=center;" parent="1" vertex="1">
          <mxGeometry x="190" y="150" width="100" height="40" as="geometry" />
        </mxCell>
        <mxCell id="MeGLf6wLGjFwOOJ8S2s7-6" value="Register" style="ellipse;whiteSpace=wrap;html=1;align=center;" parent="1" vertex="1">
          <mxGeometry x="190" y="80" width="100" height="40" as="geometry" />
        </mxCell>
        <mxCell id="MeGLf6wLGjFwOOJ8S2s7-7" style="edgeStyle=orthogonalEdgeStyle;rounded=0;orthogonalLoop=1;jettySize=auto;html=1;exitX=0.5;exitY=1;exitDx=0;exitDy=0;" parent="1" source="MeGLf6wLGjFwOOJ8S2s7-4" target="MeGLf6wLGjFwOOJ8S2s7-4" edge="1">
          <mxGeometry relative="1" as="geometry" />
        </mxCell>
        <mxCell id="2Vat6etWn5w-Smt3ppOJ-1" value="Extends" style="endArrow=block;endSize=16;endFill=0;html=1;rounded=0;exitX=0;exitY=0.5;exitDx=0;exitDy=0;entryX=1;entryY=0.5;entryDx=0;entryDy=0;" edge="1" parent="1" source="MeGLf6wLGjFwOOJ8S2s7-4" target="MeGLf6wLGjFwOOJ8S2s7-5">
          <mxGeometry width="160" relative="1" as="geometry">
            <mxPoint x="340" y="260" as="sourcePoint" />
            <mxPoint x="500" y="260" as="targetPoint" />
          </mxGeometry>
        </mxCell>
      </root>
    </mxGraphModel>
  </diagram>
</mxfile>
